<svg width="58" height="58" viewBox="0 0 58 58" fill="none" xmlns="http://www.w3.org/2000/svg">
<g clip-path="url(#clip0_4605_247)">
<path d="M49.8729 8.69863C46.1834 15.3302 43.09 22.3015 39.7926 29.134L41.8198 28.8303C37.6769 24.2213 33.4128 19.7148 29.2046 15.1663C29.0672 15.0017 28.8895 14.8754 28.6887 14.7996C28.4878 14.7238 28.2706 14.701 28.0577 14.7334C27.8449 14.7658 27.6436 14.8522 27.4731 14.9845C27.3027 15.1168 27.1688 15.2905 27.0844 15.4888C24.7064 21.0792 22.3592 26.6819 20.043 32.2969C18.924 35.0129 17.8126 37.7335 16.709 40.4587L14.9482 44.8187C14.4073 46.1658 13.6734 47.5344 13.5597 48.987C13.5404 49.2098 13.5934 49.4323 13.7109 49.6217C13.8284 49.811 14.004 49.9571 14.2117 50.0381C14.4195 50.1192 14.6482 50.1309 14.864 50.0715C15.0798 50.0122 15.2711 49.8849 15.4095 49.7087C16.3401 48.5788 16.749 47.0857 17.2876 45.741C17.8715 44.2861 18.4577 42.832 19.0461 41.3786C20.1498 38.6534 21.2603 35.9321 22.3779 33.2145C24.6832 27.5949 27.0149 21.9861 29.3728 16.388L27.2573 16.7106C31.4817 21.2474 35.6572 25.8378 39.9493 30.3116C40.081 30.4683 40.2507 30.5885 40.4423 30.6609C40.634 30.7333 40.8412 30.7554 41.0444 30.7252C41.2477 30.6951 41.4402 30.6136 41.6037 30.4885C41.7672 30.3633 41.8963 30.1988 41.9788 30.0103C45.0441 23.0948 48.3463 16.2298 51.017 9.16218C51.3122 8.38051 50.2352 8.01203 49.852 8.70102L49.8729 8.69863Z" fill="#018599"/>
<path d="M23.0206 43.2278C19.1214 46.2374 15.7059 49.9263 12.6106 53.7397L14.5611 54.2124C13.8528 49.5323 13.2863 44.8309 12.8267 40.1245C12.4002 40.551 11.9968 40.9961 11.5795 41.4319L22.5329 43.873L22.2187 41.764C19.6619 43.0527 17.3991 44.8594 15.5752 47.0685L17.4774 48.1269C18.2691 46.7115 19.3536 45.48 20.658 44.5154L18.9516 43.2752C17.765 45.6612 16.2536 47.8728 14.4606 49.8465L16.328 50.884C16.7424 49.5985 17.3862 48.3975 18.2281 47.3392L16.5101 46.0641C15.3719 47.9529 14.2321 49.8386 13.0908 51.7212L15.0195 52.4752C15.5582 49.8447 15.8111 47.1653 15.7737 44.484C15.7565 43.2734 14.2754 42.8318 13.6933 43.9699C13.4287 44.4717 13.3311 45.044 13.4146 45.6031C13.4982 46.1623 13.7586 46.6789 14.1578 47.0775C14.8759 47.7957 16.2714 47.3731 16.0751 46.2258L15.3814 42.1057L13.9045 43.2907C15.0249 43.7813 16.0849 44.3986 17.0637 45.1306L17.8389 43.174C16.2714 42.8616 14.8123 42.1534 13.5998 41.1166C12.5243 40.2277 11.2363 41.9744 12.3117 42.868C13.8326 44.1264 15.6534 44.9713 17.5999 45.3219C18.6937 45.53 19.1935 43.9739 18.3751 43.3652C17.2418 42.5249 16.0152 41.8177 14.7194 41.2573C14.5418 41.189 14.349 41.1686 14.1604 41.1981C13.9718 41.2276 13.794 41.3059 13.6446 41.4253C13.4951 41.5448 13.3794 41.7011 13.3089 41.8787C13.2383 42.0563 13.2154 42.249 13.2425 42.4376L13.9409 46.5577C14.5855 46.2699 15.2277 45.9798 15.8606 45.7036C15.7765 45.6614 15.7036 45.5998 15.648 45.5239C15.5925 45.448 15.5557 45.3599 15.5408 45.2668C15.5259 45.1737 15.5333 45.0782 15.5623 44.9883C15.5914 44.8983 15.6412 44.8163 15.7079 44.7491L13.632 44.2349C13.6722 46.9166 13.4232 49.5966 12.8894 52.2284C12.6795 53.2538 14.2739 53.8879 14.8204 52.9847C15.9571 51.0974 17.0953 49.2102 18.2351 47.3229C18.9358 46.1589 17.3827 44.9321 16.5171 46.0479C15.556 47.2528 14.8175 48.619 14.3367 50.0815C14.2498 50.324 14.2514 50.5888 14.3412 50.8292C14.431 51.0695 14.6032 51.2697 14.8273 51.3943C15.0513 51.5189 15.3128 51.5599 15.5652 51.5099C15.8177 51.46 16.0449 51.3223 16.2064 51.1214C18.1195 49.0011 19.7307 46.6274 20.994 44.0682C21.5084 43.0349 20.1144 42.2004 19.2993 42.8163C17.7031 44.0232 16.3848 45.5595 15.435 47.3199C14.8041 48.4651 16.5839 49.2892 17.3395 48.3806C18.9286 46.469 20.898 44.9084 23.1211 43.7991C24.173 43.2707 23.8472 41.9147 22.7976 41.6763L11.8467 39.191C11.0874 39.0237 10.5388 39.8457 10.5995 40.4985C11.0497 45.2095 11.672 49.9015 12.4175 54.5722C12.4557 54.78 12.553 54.972 12.6979 55.1253C12.8427 55.2786 13.0289 55.3867 13.2342 55.4366C13.4395 55.4864 13.6551 55.476 13.8554 55.4065C14.0556 55.3371 14.232 55.2115 14.3633 55.0449C17.2568 51.1229 20.4977 47.553 23.7875 43.9574C24.2025 43.5007 23.4864 42.8685 23.0345 43.2324L23.0206 43.2278Z" fill="#018599"/>
</g>
<defs>
<clipPath id="clip0_4605_247">
<rect width="21" height="60" fill="white" transform="translate(42.4238 0.0100098) rotate(45)"/>
</clipPath>
</defs>
</svg>
