<svg width="20" height="14" viewBox="0 0 20 14" fill="none" xmlns="http://www.w3.org/2000/svg">
<g clip-path="url(#clip0_4594_137)">
<mask id="mask0_4594_137" style="mask-type:luminance" maskUnits="userSpaceOnUse" x="0" y="-1" width="20" height="16">
<path d="M20 -0.00854492H0V14.0079H20V-0.00854492Z" fill="white"/>
</mask>
<g mask="url(#mask0_4594_137)">
<path fill-rule="evenodd" clip-rule="evenodd" d="M18.5532 10.3308C18.7455 10.3339 18.9366 10.3044 19.1153 10.2438C19.294 10.1833 19.4567 10.0931 19.594 9.97837C19.7313 9.86366 19.8403 9.7268 19.9147 9.57578C19.9892 9.42476 20.0275 9.26262 20.0275 9.09884C20.0275 8.93506 19.9892 8.77292 19.9147 8.6219C19.8403 8.47089 19.7313 8.33402 19.594 8.21932C19.4567 8.10461 19.294 8.01436 19.1153 7.95384C18.9366 7.89332 18.7455 7.86375 18.5532 7.86686H1.44694C0.0568385 7.86686 -0.518683 9.36697 0.570379 10.0776L4.75371 13.6402C5.02597 13.8676 5.39261 13.9942 5.7739 13.9926C6.1552 13.9909 6.52033 13.8612 6.78992 13.6316C7.0595 13.4019 7.21175 13.0909 7.21355 12.7662C7.21535 12.4415 7.06657 12.1293 6.79954 11.8975L4.96048 10.3308H18.5532ZM1.44694 6.13255H18.5532C19.9433 6.13255 20.5188 4.63244 19.4298 3.92186L15.2464 0.35921C14.9742 0.131864 14.6075 0.00523321 14.2262 0.00685125C13.8449 0.0084693 13.4798 0.138204 13.2102 0.367851C12.9406 0.597497 12.7884 0.908489 12.7866 1.23321C12.7848 1.55794 12.9336 1.87014 13.2006 2.10195L15.0396 3.66815H1.4459C1.06216 3.66815 0.694146 3.79797 0.422805 4.02905C0.151463 4.26013 -0.000976562 4.57355 -0.000976562 4.90035C-0.000976562 5.22715 0.151463 5.54057 0.422805 5.77165C0.694146 6.00273 1.06216 6.13255 1.4459 6.13255H1.44694Z" fill="#DDE3E3"/>
</g>
</g>
<defs>
<clipPath id="clip0_4594_137">
<rect width="20" height="14" fill="white"/>
</clipPath>
</defs>
</svg>
