<svg width="42" height="30" viewBox="0 0 42 30" fill="none" xmlns="http://www.w3.org/2000/svg">
<g clip-path="url(#clip0_4605_222)">
<mask id="mask0_4605_222" style="mask-type:luminance" maskUnits="userSpaceOnUse" x="-1" y="-1" width="44" height="32">
<path d="M42.0788 -0.0244141H-0.0761719V30.0403H42.0788V-0.0244141Z" fill="white"/>
</mask>
<g mask="url(#mask0_4605_222)">
<path d="M21.0897 12.1433C21.4395 12.1433 22.229 12.3957 22.139 13.4918H23.8013C23.8013 11.3851 22.3145 10.9681 21.6149 10.8793V9.69971H20.6522V10.8793C18.6401 11.1316 18.3735 12.4801 18.3735 13.1539C18.3735 15.0927 20.561 15.5974 20.9108 15.7664C21.3483 15.9354 22.0501 16.1878 22.0501 17.0305C22.0501 17.8731 21.2629 17.9576 20.9108 17.9576C20.4733 17.9576 19.5983 17.7887 19.5983 16.6091H17.9395C17.9395 17.3673 18.1149 17.9576 18.5524 18.4635C18.9899 18.9693 19.6017 19.2217 20.3901 19.3062V20.4034H21.3517V19.2217C23.4515 19.0527 23.6304 17.6208 23.6304 16.946C23.6304 15.0927 21.5306 14.5024 21.0931 14.3334C20.9176 14.1655 20.1304 13.8287 20.1304 13.1539C20.1304 12.817 20.3058 12.1433 21.0931 12.1433H21.0897Z" fill="#DDFF93"/>
<path d="M0.00146484 15.0081C11.6385 30.6824 30.3644 30.6824 42.0015 15.0081C30.3644 -0.666125 11.6385 -0.666125 0.00146484 15.0081ZM21.0015 23.8564C19.1843 23.8564 17.408 23.3374 15.8972 22.3652C14.3863 21.3929 13.2087 20.011 12.5133 18.3942C11.8179 16.7774 11.636 14.9983 11.9905 13.2819C12.345 11.5655 13.22 9.98893 14.5049 8.75148C15.7898 7.51403 17.4269 6.67132 19.2091 6.32991C20.9913 5.98849 22.8386 6.16372 24.5174 6.83342C26.1962 7.50312 27.6311 8.63723 28.6406 10.0923C29.6501 11.5474 30.189 13.2581 30.189 15.0081C30.189 17.3548 29.221 19.6054 27.498 21.2648C25.775 22.9242 23.4381 23.8564 21.0015 23.8564Z" fill="#DDFF93"/>
</g>
<path d="M34.6512 5.73816H36.5755V0.00830078H30.626V1.86156H34.6512V5.73816Z" fill="#DDFF93"/>
<path d="M7.35205 1.86156H11.3773V0.00830078H5.42773V5.73816H7.35205V1.86156Z" fill="#DDFF93"/>
<path d="M7.35205 24.2773H5.42773V30.0072H11.3773V28.1539H7.35205V24.2773Z" fill="#DDFF93"/>
<path d="M34.6512 28.1539H30.626V30.0072H36.5755V24.2773H34.6512V28.1539Z" fill="#DDFF93"/>
</g>
<defs>
<clipPath id="clip0_4605_222">
<rect width="42" height="30" fill="white" transform="translate(0.00146484 0.00830078)"/>
</clipPath>
</defs>
</svg>
