<svg width="100" height="36" viewBox="0 0 100 36" fill="none" xmlns="http://www.w3.org/2000/svg">
<g clip-path="url(#clip0_4594_159)">
<path d="M11.9763 31C10.4602 31 9.03464 30.5434 7.65099 30.1002C7.14313 29.9377 6.61945 29.7694 6.10367 29.6287C4.04057 29.0677 1.46789 29.1386 0.544657 30.3595L0 30.1451C1.1433 28.6314 4.07874 28.5999 6.32236 29.2096C6.85395 29.3543 7.38829 29.525 7.90407 29.6903C9.44451 30.1836 10.9011 30.6496 12.4553 30.534C14.2367 30.4017 15.9374 29.4918 17.5098 27.8292C17.8334 27.487 18.1477 27.1264 18.452 26.7775C19.3498 25.7477 20.2782 24.6829 21.6058 23.8861C23.4282 22.7925 26.3904 22.3617 28.1981 23.5335C28.6059 23.7977 28.917 24.1179 29.2186 24.4268C29.5078 24.7246 29.7815 25.0055 30.1288 25.2343C31.8618 26.3758 34.8938 25.736 36.5316 24.4491C37.6663 23.5575 38.41 22.4227 39.129 21.3252C39.488 20.777 39.8594 20.2105 40.2782 19.6735C41.8895 17.6072 44.2228 16.421 46.5156 16.5022C48.2734 16.5637 49.8166 17.3146 51.3089 18.0407C53.0666 18.8961 54.7274 19.7033 56.5447 19.3063C57.3403 19.1325 58.0689 18.7229 58.7738 18.3273C59.8298 17.7335 60.9215 17.1191 62.2969 17.2561C63.6479 17.3901 64.4721 18.171 65.2688 18.9261C65.7609 19.3924 66.2698 19.8743 66.8918 20.1902C68.4652 20.9892 70.6218 20.6616 72.0605 19.9849C73.6714 19.2261 74.8278 17.9938 75.848 16.9067L81.9593 10.396C83.1548 9.12249 85.0085 7.72442 87.052 8.30013C87.5626 8.4438 87.968 8.69468 88.3604 8.93687C88.6468 9.11405 88.9177 9.28155 89.22 9.40513C91.0204 10.1409 93.2867 9.15103 94.6796 8.07952C94.9719 7.8547 95.2662 7.613 95.5506 7.37925C96.7699 6.37698 98.0308 5.34071 99.8439 5L100 5.43327C98.3712 5.73923 97.1742 6.72364 96.0165 7.67479C95.729 7.91103 95.432 8.1557 95.1318 8.38598C93.5845 9.57561 91.0283 10.6585 88.9143 9.79497C88.5591 9.6498 88.2527 9.46022 87.9563 9.27709C87.587 9.04879 87.2384 8.8334 86.8258 8.71726C85.0756 8.22394 83.3474 9.71507 82.4723 10.6471L76.3628 17.158C75.3099 18.2802 74.116 19.5519 72.4006 20.3591C70.7862 21.1192 68.3469 21.4758 66.5355 20.5557C65.8351 20.1998 65.2977 19.6899 64.7764 19.1966C64.0227 18.4824 63.3106 17.8069 62.2134 17.6987C61.0972 17.5883 60.153 18.1181 59.1531 18.6794C58.4039 19.0998 57.6292 19.5345 56.7238 19.7331C54.6236 20.1939 52.7613 19.2864 50.9605 18.4112C49.5391 17.7193 48.0688 17.0037 46.484 16.9471C43.4416 16.8431 41.3771 19.1735 40.8173 19.8911C40.4095 20.4142 40.043 20.9736 39.6885 21.5145C38.9495 22.6424 38.1855 23.8084 36.9872 24.7499C35.1129 26.2226 31.7411 26.9006 29.7096 25.5631C29.3114 25.301 29.0054 24.9864 28.7094 24.6821C28.4133 24.3779 28.1372 24.0943 27.781 23.8633C26.2237 22.8533 23.6187 23.2553 22.0002 24.227C20.7486 24.9784 19.8466 26.0137 18.9743 27.0128C18.6672 27.3651 18.3495 27.7292 18.0198 28.0783C16.3394 29.8553 14.4878 30.8308 12.5161 30.9774C12.3368 30.9917 12.1566 30.9992 11.9763 31Z" fill="#018599" stroke="#018599"/>
</g>
<defs>
<clipPath id="clip0_4594_159">
<rect width="100" height="36" fill="white"/>
</clipPath>
</defs>
</svg>
