<svg width="20" height="20" viewBox="0 0 20 20" fill="none" xmlns="http://www.w3.org/2000/svg">
<g clip-path="url(#clip0_4587_291)">
<mask id="mask0_4587_291" style="mask-type:luminance" maskUnits="userSpaceOnUse" x="0" y="0" width="20" height="20">
<path d="M20 0H0V20H20V0Z" fill="white"/>
</mask>
<g mask="url(#mask0_4587_291)">
<path d="M1.89677 15.86L5.80677 11.95L8.63614 14.7781L13.2068 10.2081L14.9999 12V7.00001H9.99989L11.793 8.79313L8.63614 11.95L5.80802 9.12125L0.861766 14.0669C-0.187971 11.7175 -0.295648 9.0548 0.560962 6.62836C1.41757 4.20191 3.17308 2.19695 5.46512 1.02734C7.75716 -0.142268 10.4108 -0.387249 12.8782 0.342968C15.3456 1.07318 17.4385 2.72286 18.7249 4.95147C20.0113 7.18008 20.3929 9.8175 19.791 12.3193C19.1891 14.8212 17.6497 16.9964 15.4905 18.3961C13.3312 19.7958 10.717 20.3131 8.18745 19.8411C5.65788 19.3692 3.40605 17.9441 1.89677 15.86Z" fill="#003F2F"/>
</g>
</g>
<defs>
<clipPath id="clip0_4587_291">
<rect width="20" height="20" fill="white"/>
</clipPath>
</defs>
</svg>
