<svg width="44" height="44" viewBox="0 0 44 44" fill="none" xmlns="http://www.w3.org/2000/svg">
<g clip-path="url(#clip0_4591_282)">
<mask id="mask0_4591_282" style="mask-type:luminance" maskUnits="userSpaceOnUse" x="-1" y="0" width="45" height="44">
<path d="M44.0002 0H-0.000976562V44H44.0002V0Z" fill="white"/>
</mask>
<g mask="url(#mask0_4591_282)">
<path d="M22.0108 12.5343C22.6673 12.8116 23.3066 13.1277 23.9252 13.4807C24.4021 13.5163 25.0656 13.4876 25.0644 12.8528L25.0379 0.625627C25.0379 0.532115 25.0167 0.439807 24.9761 0.355488C24.9355 0.271169 24.8763 0.196983 24.8031 0.138393C24.7298 0.079802 24.6443 0.0382957 24.5527 0.016924C24.4612 -0.00444774 24.3661 -0.00513894 24.2742 0.0148993C21.4291 0.654935 18.8094 2.04429 16.6894 4.03742C14.5695 6.03055 13.0274 8.55411 12.2246 11.3438C15.536 10.8202 18.9286 11.2331 22.0154 12.5354L22.0108 12.5343Z" fill="#003F2F"/>
<path d="M15.0012 13.7935C-2.99553 13.6732 -5.65287 40.276 11.6896 43.953C11.7599 43.9687 11.8329 43.9684 11.9031 43.9521C11.9733 43.9359 12.039 43.9042 12.0952 43.8593C12.1514 43.8144 12.1967 43.7574 12.2278 43.6928C12.2589 43.6281 12.2749 43.5572 12.2747 43.4855L12.2482 31.751C12.2482 31.6247 12.1979 31.5035 12.1084 31.414C12.0188 31.3244 11.8972 31.2738 11.7702 31.2732H10.1484C10.0296 31.2729 9.91307 31.2408 9.81104 31.1803C9.70902 31.1197 9.62523 31.033 9.56846 30.9292C9.51169 30.8254 9.48403 30.7084 9.48838 30.5903C9.49273 30.4722 9.52893 30.3574 9.59318 30.258C16.7727 19.7771 13.2872 19.7805 20.4679 30.258C20.532 30.3574 20.5681 30.4721 20.5725 30.5901C20.5769 30.7082 20.5493 30.8252 20.4927 30.929C20.4361 31.0328 20.3526 31.1196 20.2507 31.1804C20.1489 31.2411 20.0326 31.2736 19.9139 31.2744H18.0836C18.0204 31.2745 17.958 31.2871 17.8997 31.3113C17.8415 31.3356 17.7887 31.371 17.7443 31.4156C17.6998 31.4602 17.6647 31.5131 17.6409 31.5713C17.6171 31.6294 17.6051 31.6917 17.6055 31.7545L17.632 43.5233C17.6317 43.5942 17.6473 43.6643 17.6778 43.7284C17.7082 43.7925 17.7526 43.849 17.8078 43.8938C17.863 43.9386 17.9276 43.9706 17.9969 43.9874C18.0661 44.0042 18.1382 44.0054 18.208 43.9908C35.7301 40.4617 33.1096 13.6354 15.0012 13.7935Z" fill="#003F2F"/>
<path d="M43.9999 15.5834C43.95 11.979 42.6925 8.49433 40.4266 5.68134C38.1607 2.86835 35.016 0.887944 31.4907 0.0538885C31.3983 0.0330142 31.3024 0.0331459 31.2102 0.0542767C31.1179 0.0754074 31.0316 0.11699 30.9578 0.175924C30.8839 0.234857 30.8244 0.30962 30.7836 0.394635C30.7429 0.479649 30.7219 0.572722 30.7224 0.66691L30.75 12.8551C30.75 13.0207 30.816 13.1795 30.9334 13.2967C31.0509 13.414 31.2102 13.4802 31.3766 13.4808H33.1148C33.2277 13.4814 33.3383 13.5121 33.4351 13.5699C33.532 13.6276 33.6115 13.7101 33.6653 13.8088C33.7191 13.9075 33.7452 14.0188 33.741 14.131C33.7367 14.2432 33.7023 14.3523 33.6412 14.4467L30.3008 19.6465C32.4354 23.1124 33.3285 27.1948 32.8349 31.2297C39.3752 29.0733 44.1105 22.8468 44.001 15.5834H43.9999Z" fill="#003F2F"/>
</g>
</g>
<defs>
<clipPath id="clip0_4591_282">
<rect width="44" height="44" fill="white"/>
</clipPath>
</defs>
</svg>
